<svg xmlns="http://www.w3.org/2000/svg" width="79.479" height="107.163" viewBox="0 0 79.479 107.163">
  <g id="Logo" transform="translate(-35 -63.19)">
    <rect id="Rectangle_1063" data-name="Rectangle 1063" width="57.366" height="0.834" transform="translate(45.987 138.608)" fill="#fff"/>
    <rect id="Rectangle_1064" data-name="Rectangle 1064" width="57.351" height="0.835" transform="translate(46.003 169.519)" fill="#fff"/>
    <g id="Group_340" data-name="Group 340" transform="translate(46.015 141.18)">
      <path id="Path_4260" data-name="Path 4260" d="M57.423,215.422H52.751V188.878h6.556q3.916,0,5.913,1.8t2,6.03a11.632,11.632,0,0,1-.284,2.756,7.137,7.137,0,0,1-.754,1.932,4.812,4.812,0,0,1-1.054,1.268,4.948,4.948,0,0,1-1.188.734L67.9,215.422H63.149L59.832,204.43a8.79,8.79,0,0,1-1.111.092c-.437.013-.871.017-1.3.017Zm0-14.632h1.658a6.086,6.086,0,0,0,1.6-.183,2.168,2.168,0,0,0,1.072-.662,2.94,2.94,0,0,0,.6-1.268,8.605,8.605,0,0,0,.187-1.967,4.858,4.858,0,0,0-.791-3.217,3.5,3.5,0,0,0-2.673-.865H57.423Z" transform="translate(-52.751 -188.878)" fill="#fff"/>
    </g>
    <path id="Path_4261" data-name="Path 4261" d="M87.143,215.422H82.622l5.012-26.544h5.8l5.012,26.544H93.926l-.83-5.882H87.973Zm1.508-9.853h3.767l-1.845-11.4H90.5Z" transform="translate(-18.072 -47.698)" fill="#fff"/>
    <path id="Path_4262" data-name="Path 4262" d="M133.485,188.878v26.544h-4.068V194.688h-.076l-4.221,20.734H122.86l-4.22-20.734h-.074v20.734H114.5V188.878h6.142l3.315,15.514h.076l3.317-15.514Z" transform="translate(-30.168 -47.698)" fill="#fff"/>
    <g id="Group_341" data-name="Group 341" transform="translate(35 63.19)">
      <path id="Path_4263" data-name="Path 4263" d="M62.036,70.122c.418.786.1,1.925-.066,2.821-.083.475-.022,1.2-.5,1.288-.3-.656.183-1.644.253-2.638a5.691,5.691,0,0,1,.061-1.349c-.032-.135.12-.087.129-.185.071-.009.111.017.124.063" transform="translate(-45.009 -65.796)" fill="#fff"/>
      <path id="Path_4264" data-name="Path 4264" d="M65.827,71.167c-.168.58-.468,1.22-.63,1.9s-.089,1.458-.564,1.9c-.412-.172-.146-.858-.063-1.289a9.183,9.183,0,0,1,.882-2.637c.213-.05.264.068.375.122" transform="translate(-46.161 -66.166)" fill="#fff"/>
      <path id="Path_4265" data-name="Path 4265" d="M70.167,71.111c.059.5-.442.619-.693.98a17.845,17.845,0,0,0-1.508,3.189c-.12.307-.235.85-.688.859-.146-.436.146-.935.314-1.348a10.246,10.246,0,0,1,2.2-3.741.572.572,0,0,1,.377.061" transform="translate(-47.234 -66.172)" fill="#fff"/>
      <path id="Path_4266" data-name="Path 4266" d="M130.37,76.635c-.462-.107-.44-.658-.564-.98a14.245,14.245,0,0,0-2.264-3.862c-.043-.166.124-.125.127-.246h.127c1.168.717,1.749,2.283,2.324,3.74.161.414.619.963.251,1.348" transform="translate(-70.117 -66.361)" fill="#fff"/>
      <path id="Path_4267" data-name="Path 4267" d="M133.1,71.546c.558.3.645,1.148.817,1.839a3.608,3.608,0,0,1,.25,2.085c-.594-.305-.479-1.194-.627-1.839a14.853,14.853,0,0,0-.63-1.84c-.006-.111.076-.127.066-.244Z" transform="translate(-72.157 -66.361)" fill="#fff"/>
      <path id="Path_4268" data-name="Path 4268" d="M137.428,71.945a7.21,7.21,0,0,1-.063,3c-.076.421-.137.963-.441,1.165-.42-.261-.15-.959-.061-1.471a10.157,10.157,0,0,0,.251-2.514c.022-.083.109-.1.124-.183Z" transform="translate(-73.593 -66.512)" fill="#fff"/>
      <path id="Path_4269" data-name="Path 4269" d="M74.01,73.211c-.357.634-1.074.588-1.571,1.044a10.058,10.058,0,0,0-1.508,1.9c-.44.678-.692,1.549-1.445,1.961-.248-.427.225-.871.438-1.224A11.525,11.525,0,0,1,72.375,73.7c.4-.292.957-.39,1.32-.676.146.022.271.061.314.183" transform="translate(-48.061 -66.923)" fill="#fff"/>
      <path id="Path_4270" data-name="Path 4270" d="M127.335,78.55c-.506.1-.745-.54-.943-.856-.689-1.1-1.4-2.614-2.576-3.311-.375-.226-.8-.17-1.131-.553-.029-.192.168-.161.189-.3h.187a6.672,6.672,0,0,1,3.079,2.818,6.888,6.888,0,0,1,1.194,2.207" transform="translate(-68.275 -67.112)" fill="#fff"/>
      <path id="Path_4271" data-name="Path 4271" d="M95.582,162.153c.865-.068,2.488.179,3.58.122.582-.035,1.508-.351,1.7.305.168.583-.553,1.285-.943,1.592a5.993,5.993,0,0,1-7.852-.428c-.2-.213-.767-.8-.5-1.289.228-.423.862-.228,1.57-.181a17.554,17.554,0,0,0,2.452-.122m-2.828.98a4.845,4.845,0,0,0,3.456,1.534,4.993,4.993,0,0,0,2.388-.738c.41-.218,1.037-.462.941-.859-2.336,0-4.347-.122-6.785.063" transform="translate(-56.438 -100.742)" fill="#fff"/>
      <path id="Path_4272" data-name="Path 4272" d="M114.479,92.779v1.1c-.251,1.623-1.5,2.843-2.512,3.986a16.28,16.28,0,0,1-1.634,1.714,23.449,23.449,0,0,1-4.273,2.453,29.119,29.119,0,0,0-4.085,2.638c-1.205.9-2.761,2.324-4.46,2.391a5.505,5.505,0,0,1-4.273-2.332c-.774-1.49-.611-3.752-.817-5.884a6.4,6.4,0,0,0-1.318.061c-.3,1.064.6,1.6.88,2.451a19.667,19.667,0,0,1,.5,2.577c.445,2.492.959,5.117,1.445,7.725.669,3.6,1.606,7.13.754,10.67-.717,2.965-2.976,5.557-4.774,7.539a12.555,12.555,0,0,1-8.171,4.17c-2.643.264-5.347,0-8.04,0-2.673,0-5.429.159-7.6-.369-4.425-1.072-6.67-3.677-8.988-6.868a12.476,12.476,0,0,1-2.638-9.071,31.846,31.846,0,0,1,.567-3.311c.638-3.335,1.24-6.6,1.884-9.932a22.989,22.989,0,0,1,.628-3.25c.172-.482,1.307-1.656.817-2.27-.246-.307-.762.107-1.257-.246-.4,1.641-.2,3.429-.878,4.723a5.553,5.553,0,0,1-4.462,2.27,7.458,7.458,0,0,1-2.2-.8c-1.351-.737-2.575-1.889-3.957-2.819-1.333-.9-2.828-1.562-4.335-2.392a13.205,13.205,0,0,1-3.706-3c-1.091-1.257-2.3-2.457-2.578-4.109V91.553c.338-.462.9-.209,1.32-.063,1.255.444,2.161,1.649,3.392,2.392a46.409,46.409,0,0,0,4.776,2.085c1.612.721,3.044,1.9,4.774,2.087-.4-3.129-2.141-5.747-2.954-8.526-.865-2.967-1.616-6.072-2.449-9.2a25.363,25.363,0,0,1-1.257-6.5,13.947,13.947,0,0,1,.882-4.657,7.067,7.067,0,0,1,2.386-3.25,16.718,16.718,0,0,1,8.67-2.7,14.724,14.724,0,0,1,9.866,2.882c1.769,1.161,3.621,2.717,5.4,4.106.436.342,1.227,1.237,1.821,1.35a27.208,27.208,0,0,0,3.957,0,21.841,21.841,0,0,0,3.959,0A4.474,4.474,0,0,0,80.74,70.7c2.8-2.187,5.36-4.544,9.047-5.7,4.451-1.4,10.7-.006,13.7,2.083a7.075,7.075,0,0,1,2.451,3.252,15.774,15.774,0,0,1,.941,4.6,22.644,22.644,0,0,1-1.2,6.437c-1.111,4.165-1.9,8.459-3.516,12.019a29.17,29.17,0,0,0-1.948,5.884c1.71-.159,3.143-1.243,4.713-1.96s3.246-1.3,4.649-2.085a22.822,22.822,0,0,0,2.2-1.654c.6-.457,2.086-1.479,2.7-.8M63.462,66.6a13.724,13.724,0,0,0-9.11-2.455,17.234,17.234,0,0,0-7.728,2.329c-1.922,1.265-3.083,4.283-3.078,7.42,0,2.629,1.039,5.419,1.76,8.094.754,2.815,1.194,5.631,2.009,7.91.477,1.333,1.163,2.481,1.7,3.984.4,1.131,1.508,3.468,1.131,4.476-.346.926-1.754.573-2.578.244-.989-.394-1.878-1.052-2.889-1.533-2.04-.967-4.338-1.647-6.031-2.882A13.483,13.483,0,0,0,36,92.348c.139,1.616,1.133,2.434,2.011,3.436A18.081,18.081,0,0,0,39.4,97.315a14.4,14.4,0,0,0,3.645,2.207,23.45,23.45,0,0,1,3.645,2.209,38.916,38.916,0,0,0,3.456,2.45,5.221,5.221,0,0,0,2.009.673,4.7,4.7,0,0,0,3.268-1.836c.634-1.205.464-3.006.692-4.66-2.139-1.847-4.7-4.69-4.839-8.644-.048-1.381.076-2.891.127-4.3.159-4.492,2.068-7.117,5.088-8.7,3.931-2.235,7.236-5.078,13.385-5.15a53.938,53.938,0,0,0-6.41-4.964M99.776,97.132c.327-1,.724-2.068,1.07-3s.9-1.81,1.257-2.759a31.916,31.916,0,0,0,.878-3.189c.556-2.109,1.075-4.29,1.633-6.438A25.174,25.174,0,0,0,105.936,75a14.591,14.591,0,0,0-.756-3.986A6.376,6.376,0,0,0,103.3,68.07c-1.844-1.52-5.262-2.492-8.482-2.7-6.257-.4-9.855,3.082-13.129,5.7-.12.1-.495.244-.379.492,5.53.684,8.621,3.24,12.254,5.455a9.247,9.247,0,0,1,4.02,4.784,12.586,12.586,0,0,1,.5,3.74c.05,1.359.2,2.806.127,4.232a10.171,10.171,0,0,1-3.144,6.866c-.479.47-1.484,1.093-1.7,1.716a8.735,8.735,0,0,0,.124,3.126,9.9,9.9,0,0,0,.569,2.821,4.105,4.105,0,0,0,1.381,1.229c2.436,1.458,4.53-.424,6.219-1.721a25.368,25.368,0,0,1,3.9-2.573,21.743,21.743,0,0,0,4.146-2.331,15.7,15.7,0,0,0,1.573-1.655c.976-1.116,2.02-1.915,2.26-3.619-1.181.375-1.933,1.351-2.955,2.024-2.081,1.381-4.769,2.052-6.972,3.25-1.111.6-2.262,1.556-3.833,1.227-.921-.843-.3-2.087,0-3M58.183,95.72c-.124-3.564-.009-7.986,3.018-8.4,1.676-.231,2.652.607,3.643,1.1a17.19,17.19,0,0,0,6.1,1.839c1.238.087,2.545,0,3.77,0,1.329,0,2.623.087,3.83,0a15.392,15.392,0,0,0,4.275-1.1c1.316-.49,2.4-1.346,3.706-1.716a3.28,3.28,0,0,1,3.894,1.226c.88,1.525,1.026,4.825.882,6.927-.056.81-.288,1.76.251,2.329.839.085,1.518-.607,2.074-1.1a10.267,10.267,0,0,0,3.643-6.562c.085-1.076-.05-2.287-.063-3.494a23.392,23.392,0,0,0-.127-3.433,8.667,8.667,0,0,0-2.889-4.906,30.313,30.313,0,0,0-3.078-1.839,28.419,28.419,0,0,0-6.471-3.433,12.936,12.936,0,0,0-4.275-.738c-3.85.272-8.029-.187-11.809.063a16.544,16.544,0,0,0-7.162,2.392c-2.166,1.285-4.334,2.337-5.97,3.555a8.4,8.4,0,0,0-2.892,4.538,18,18,0,0,0-.248,3.37c-.03,1.194-.114,2.451-.066,3.56a9.924,9.924,0,0,0,3.643,6.927c.562.5,1.136,1.189,2.14,1.1.455-.59.215-1.425.185-2.207m23.185,23.546a11.074,11.074,0,0,1,.5-3.435c.594-1.34,1.837-2.46,2.826-3.8a22.508,22.508,0,0,0,2.388-4.233,54.028,54.028,0,0,0,2.7-7.232,13.569,13.569,0,0,0,.627-2.7c.011-.309-.072-.671-.061-1.043.035-1.148.084-2.486,0-3.74-.164-2.422-.334-5.56-3.142-4.906-1.471.344-2.632,1.242-4.022,1.777a15.125,15.125,0,0,1-4.71,1.168,64.54,64.54,0,0,1-7.6,0,18.228,18.228,0,0,1-6.974-2.27,4.544,4.544,0,0,0-2.451-.675c-1.983.2-2.061,2.2-2.259,4.232a35.563,35.563,0,0,0,0,4.473c.006.3-.146.734-.127,1.043a13.109,13.109,0,0,0,.689,2.638c1.276,4.357,2.833,8.493,5.216,11.589a16.911,16.911,0,0,1,2.765,3.982,13.458,13.458,0,0,1,.377,3.188,4.042,4.042,0,0,0,4.084,3.8v-5.579c-.4-.331-.839-.773-1.319-1.163-.4-.329-1.259-.641-.88-1.349.725-.159,1.2.523,1.7.92.355.281,1.26.861,1.381,1.348a13.287,13.287,0,0,1,0,2.884v2.875a13.949,13.949,0,0,1,3.393,0v-2.939a12.041,12.041,0,0,1,0-3.006c.124-.408,1.17-1.116,1.445-1.348.477-.4,1.122-1.15,1.76-.735-.022,1.283-2.037,1.549-2.325,2.512a10.92,10.92,0,0,0,0,2.76v2.819c2.462-.263,3.817-1.57,4.02-3.86m3.708-6.378a15.7,15.7,0,0,0-2.451,3.433,11,11,0,0,0-.377,3.187,5.081,5.081,0,0,1-3.456,4.293c-1.218.362-2.516,0-4.02,0-1.355,0-3,.331-3.959.063a5.177,5.177,0,0,1-3.519-4.049c-.187-1.07.1-2.285-.441-3.553a16.511,16.511,0,0,0-2.449-3.374c-2.658-3.374-4.038-7.5-5.53-12.019,0-.037-.009-.069-.063-.061a2.7,2.7,0,0,0-.441.982,52.161,52.161,0,0,0-1.067,5.455c-.318,1.8-.719,3.647-1.068,5.457a42.78,42.78,0,0,0-.941,5.581c-.235,4.315,1.615,6.89,3.517,9.258,2.1,2.614,4.373,4.937,8.545,5.518a42.3,42.3,0,0,0,5.4.061h5.464a21.018,21.018,0,0,0,5.153-.307,13.029,13.029,0,0,0,7.1-5.026,20.044,20.044,0,0,0,2.763-3.987c1.656-3.646.6-7.829-.124-11.711-.356-1.884-.778-3.806-1.131-5.7-.377-2.006-.44-4.049-1.384-5.581-1.36,4.372-2.913,8.8-5.527,12.079" transform="translate(-35 -63.19)" fill="#fff"/>
    </g>
  </g>
</svg>
