<svg xmlns="http://www.w3.org/2000/svg" xmlns:xlink="http://www.w3.org/1999/xlink" width="248" height="140" viewBox="0 0 248 140">
  <defs>
    <style>
      .cls-1 {
        fill: none;
      }

      .cls-2 {
        fill: #e5342f;
      }

      .cls-3 {
        fill: #fff;
      }

      .cls-4 {
        clip-path: url(#clip-path);
      }
    </style>
    <clipPath id="clip-path">
      <rect id="Rectangle_1033" data-name="Rectangle 1033" class="cls-1" width="111.908" height="40.625"/>
    </clipPath>
  </defs>
  <g id="Group_348" data-name="Group 348" transform="translate(-130 -391)">
    <rect id="Background_image_template" data-name="Background image template" class="cls-2" width="248" height="140" transform="translate(130 391)"/>
    <g id="Group_206" data-name="Group 206" transform="translate(199.046 440.688)">
      <path id="Path_3871" data-name="Path 3871" class="cls-3" d="M6.353,7.381h27.76V35.14H6.353ZM0,41.494H40.467V1.027H0Z" transform="translate(0 -0.868)"/>
      <path id="Path_3872" data-name="Path 3872" class="cls-3" d="M302.02,11.065v2.253h-9.372V1.025h3.062v10.04Z" transform="translate(-247.432 -0.867)"/>
      <path id="Path_3873" data-name="Path 3873" class="cls-3" d="M373.7,11.065v2.253h-9.063V1.025h8.94V3.278H367.7V5.856H373.3V8.108H367.7v2.957Z" transform="translate(-308.296 -0.867)"/>
      <path id="Path_3874" data-name="Path 3874" class="cls-3" d="M445.057,5.583l3.951-4.558h2.662V13.318h-3.062V5.644L445.287,9.5h-.46l-3.32-3.854v7.673h-3.062V1.025H441.1Z" transform="translate(-370.701 -0.866)"/>
      <g id="Group_335" data-name="Group 335">
        <g id="Group_334" data-name="Group 334" class="cls-4">
          <path id="Path_3875" data-name="Path 3875" class="cls-3" d="M545.272,0a6.976,6.976,0,0,1,5.086,1.9A5.98,5.98,0,0,1,552.3,6.309a5.91,5.91,0,0,1-1.971,4.426,7.816,7.816,0,0,1-10.146.009,5.986,5.986,0,0,1-.013-8.852A7.012,7.012,0,0,1,545.272,0m0,10.058a3.858,3.858,0,0,0,2.807-1.034,3.613,3.613,0,0,0,1.064-2.715,3.61,3.61,0,0,0-1.064-2.719,4.36,4.36,0,0,0-5.628,0,3.6,3.6,0,0,0-1.069,2.719,3.6,3.6,0,0,0,1.069,2.715,3.885,3.885,0,0,0,2.82,1.034" transform="translate(-455.064 0)"/>
          <path id="Path_3876" data-name="Path 3876" class="cls-3" d="M656.246,1.025V13.318h-2.586l-6.785-7.875v7.875h-3.062V1.025h2.808l6.563,7.515V1.025Z" transform="translate(-544.338 -0.867)"/>
          <path id="Path_3877" data-name="Path 3877" class="cls-3" d="M301.489,107.093v2.684a10.518,10.518,0,0,0-4.593-1.135,4.709,4.709,0,0,0-3.335,1.091,3.634,3.634,0,0,0-1.17,2.78,3.288,3.288,0,0,0,1.17,2.622,4.568,4.568,0,0,0,3.08,1,5.1,5.1,0,0,0,2.033-.44v-1.434H296.9v-2.253h4.849v5.024a5.346,5.346,0,0,1-2.222,1.192,9.939,9.939,0,0,1-2.952.462,7.806,7.806,0,0,1-5.275-1.773,6.018,6.018,0,0,1,0-9.072,7.94,7.94,0,0,1,5.346-1.764,11.206,11.206,0,0,1,4.848,1.012" transform="translate(-244.543 -89.691)"/>
          <path id="Path_3878" data-name="Path 3878" class="cls-3" d="M390.386,107.107h5.491a4.109,4.109,0,0,1,2.9,1.033,3.284,3.284,0,0,1,1.117,2.5,3.178,3.178,0,0,1-2.112,3.007,4.33,4.33,0,0,1,1.76,2.268q.834,1.847,1.611,3.483H397.8q-.3-.607-1.048-2.314a7.143,7.143,0,0,0-1.28-2.191,1.671,1.671,0,0,0-1.139-.484h-.88V119.4h-3.062Zm3.062,2.253v2.8h1.619a1.9,1.9,0,0,0,1.228-.365,1.261,1.261,0,0,0,.453-1.043q0-1.39-1.751-1.39Z" transform="translate(-330.068 -90.558)"/>
          <path id="Path_3879" data-name="Path 3879" class="cls-3" d="M477.135,106.082a6.975,6.975,0,0,1,5.086,1.9,5.98,5.98,0,0,1,1.945,4.413,5.911,5.911,0,0,1-1.971,4.426,7.816,7.816,0,0,1-10.146.009,5.986,5.986,0,0,1-.013-8.852,7.012,7.012,0,0,1,5.1-1.892m0,10.058a3.858,3.858,0,0,0,2.807-1.034,4,4,0,0,0,0-5.434,4.36,4.36,0,0,0-5.627,0,3.987,3.987,0,0,0,0,5.434,3.885,3.885,0,0,0,2.82,1.034" transform="translate(-397.455 -89.691)"/>
          <path id="Path_3880" data-name="Path 3880" class="cls-3" d="M580.328,107.106l-5.681,12.451h-1.329l-5.956-12.451H570.7l3.253,7.024,3.079-7.024Z" transform="translate(-479.7 -90.558)"/>
          <path id="Path_3881" data-name="Path 3881" class="cls-3" d="M674.688,117.147V119.4h-9.063V107.106h8.94v2.253h-5.878v2.578h5.605v2.253h-5.605v2.957Z" transform="translate(-562.781 -90.558)"/>
          <path id="Path_3882" data-name="Path 3882" class="cls-3" d="M298.316,219.466v1.409h-5.667v-7.686h5.59V214.6h-3.675v1.612h3.5v1.408h-3.5v1.849Z" transform="translate(-247.432 -180.249)"/>
          <path id="Path_3883" data-name="Path 3883" class="cls-3" d="M342.261,213.188l-3.006,3.7,3.336,3.984h-2.484l-2.084-2.538-2.047,2.538h-2.447l3.264-3.982-3.082-3.7h2.484l1.831,2.269,1.8-2.269Z" transform="translate(-281.996 -180.249)"/>
          <path id="Path_3884" data-name="Path 3884" class="cls-3" d="M403.9,219.466v1.409h-5.667v-7.686h5.59V214.6h-3.675v1.612h3.5v1.408h-3.5v1.849Z" transform="translate(-336.702 -180.249)"/>
          <path id="Path_3885" data-name="Path 3885" class="cls-3" d="M448.34,213.188V214.6h-2.784v6.278h-1.915V214.6h-2.784v-1.408Z" transform="translate(-372.741 -180.249)"/>
          <path id="Path_3886" data-name="Path 3886" class="cls-3" d="M502.645,219.466v1.409h-5.667v-7.686h5.59V214.6h-3.675v1.612h3.5v1.408h-3.5v1.849Z" transform="translate(-420.191 -180.249)"/>
          <path id="Path_3887" data-name="Path 3887" class="cls-3" d="M543.129,213.188h3.433a2.569,2.569,0,0,1,1.816.646,2.053,2.053,0,0,1,.7,1.564,1.987,1.987,0,0,1-1.32,1.88,2.707,2.707,0,0,1,1.1,1.418q.522,1.155,1.007,2.177h-2.1q-.188-.38-.656-1.447a4.468,4.468,0,0,0-.8-1.37,1.045,1.045,0,0,0-.713-.3h-.55v3.12h-1.915Zm1.915,1.408v1.75h1.012a1.189,1.189,0,0,0,.768-.228.789.789,0,0,0,.283-.652q0-.869-1.1-.869Z" transform="translate(-459.211 -180.249)"/>
        </g>
      </g>
    </g>
  </g>
</svg>
