<svg id="Group_206" data-name="Group 206" xmlns="http://www.w3.org/2000/svg" xmlns:xlink="http://www.w3.org/1999/xlink" width="301.104" height="109.309" viewBox="0 0 301.104 109.309">
  <defs>
    <clipPath id="clip-path">
      <rect id="Rectangle_1033" data-name="Rectangle 1033" width="301.104" height="109.309" fill="none"/>
    </clipPath>
  </defs>
  <path id="Path_3871" data-name="Path 3871" d="M17.094,18.122H91.785V92.814H17.094ZM0,109.909H108.882V1.027H0Z" transform="translate(0 -0.6)" fill="#fff"/>
  <path id="Path_3872" data-name="Path 3872" d="M317.864,28.04V34.1H292.648V1.025h8.24V28.04Z" transform="translate(-170.987 -0.599)" fill="#fff"/>
  <path id="Path_3873" data-name="Path 3873" d="M389.022,28.04V34.1H364.635V1.025H388.69V7.086H372.875v6.937h15.082v6.061H372.875V28.04Z" transform="translate(-213.047 -0.599)" fill="#fff"/>
  <path id="Path_3874" data-name="Path 3874" d="M456.237,13.289,466.868,1.025h7.162V34.1h-8.239V13.455l-8.936,10.37h-1.237l-8.934-10.37V34.1h-8.239V1.025H445.6Z" transform="translate(-256.172 -0.599)" fill="#fff"/>
  <g id="Group_335" data-name="Group 335">
    <g id="Group_334" data-name="Group 334" clip-path="url(#clip-path)">
      <path id="Path_3875" data-name="Path 3875" d="M557.188,0q8.453,0,13.685,5.1a16.089,16.089,0,0,1,5.232,11.874,15.9,15.9,0,0,1-5.3,11.909q-5.3,5.044-13.614,5.043-8.4,0-13.685-5.019a16.108,16.108,0,0,1-.036-23.818Q548.712,0,557.188,0m0,27.062a10.381,10.381,0,0,0,7.553-2.782,9.722,9.722,0,0,0,2.864-7.3,9.714,9.714,0,0,0-2.864-7.316,11.731,11.731,0,0,0-15.141,0,9.691,9.691,0,0,0-2.876,7.316,9.7,9.7,0,0,0,2.876,7.3,10.452,10.452,0,0,0,7.588,2.782" transform="translate(-314.471 0)" fill="#fff"/>
      <path id="Path_3876" data-name="Path 3876" d="M677.266,1.025V34.1h-6.959l-18.256-21.19V34.1h-8.239V1.025h7.555l17.66,20.22V1.025Z" transform="translate(-376.163 -0.599)" fill="#fff"/>
      <path id="Path_3877" data-name="Path 3877" d="M322.212,108.8v7.222a28.3,28.3,0,0,0-12.359-3.054q-5.824,0-8.973,2.936a9.777,9.777,0,0,0-3.149,7.481,8.846,8.846,0,0,0,3.149,7.056,12.29,12.29,0,0,0,8.287,2.7,13.732,13.732,0,0,0,5.469-1.184V128.1h-4.783v-6.061H322.9v13.519a14.385,14.385,0,0,1-5.979,3.208,26.743,26.743,0,0,1-7.943,1.243q-8.642,0-14.194-4.771a16.191,16.191,0,0,1,0-24.41q5.552-4.746,14.384-4.747a30.151,30.151,0,0,1,13.046,2.723" transform="translate(-168.99 -61.98)" fill="#fff"/>
      <path id="Path_3878" data-name="Path 3878" d="M390.386,107.107H405.16a11.055,11.055,0,0,1,7.814,2.78,8.835,8.835,0,0,1,3.007,6.731q0,5.466-5.682,8.092,2.491,1.133,4.735,6.1t4.334,9.37h-9.042q-.809-1.634-2.821-6.227t-3.444-5.9a4.5,4.5,0,0,0-3.066-1.3h-2.368v13.425h-8.239Zm8.239,6.061V120.7h4.356a5.117,5.117,0,0,0,3.3-.983,3.394,3.394,0,0,0,1.219-2.806q0-3.74-4.712-3.741Z" transform="translate(-228.093 -62.58)" fill="#fff"/>
      <path id="Path_3879" data-name="Path 3879" d="M489.051,106.082q8.453,0,13.685,5.1a16.089,16.089,0,0,1,5.232,11.874,15.9,15.9,0,0,1-5.3,11.909q-5.3,5.044-13.614,5.043-8.405,0-13.685-5.019a16.108,16.108,0,0,1-.036-23.818q5.244-5.09,13.72-5.09m0,27.062a10.38,10.38,0,0,0,7.553-2.782,10.759,10.759,0,0,0,0-14.62,11.73,11.73,0,0,0-15.141,0,10.727,10.727,0,0,0,0,14.62,10.452,10.452,0,0,0,7.588,2.782" transform="translate(-274.66 -61.981)" fill="#fff"/>
      <path id="Path_3880" data-name="Path 3880" d="M602.249,107.106l-15.287,33.5h-3.575l-16.025-33.5h8.976l8.752,18.9,8.285-18.9Z" transform="translate(-331.495 -62.58)" fill="#fff"/>
      <path id="Path_3881" data-name="Path 3881" d="M690.011,134.121v6.061H665.625V107.106H689.68v6.061H673.864V120.1h15.082v6.061H673.864v7.955Z" transform="translate(-388.908 -62.58)" fill="#fff"/>
      <path id="Path_3882" data-name="Path 3882" d="M307.9,230.079v3.79H292.649V213.188H307.69v3.79H297.8v4.338h9.43v3.79H297.8v4.974Z" transform="translate(-170.987 -124.56)" fill="#fff"/>
      <path id="Path_3883" data-name="Path 3883" d="M357.023,213.188l-8.089,9.963,8.977,10.718h-6.684l-5.606-6.83-5.508,6.83h-6.584l8.781-10.715-8.293-9.966H340.7l4.925,6.1,4.85-6.1Z" transform="translate(-194.872 -124.56)" fill="#fff"/>
      <path id="Path_3884" data-name="Path 3884" d="M413.48,230.079v3.79H398.232V213.188h15.041v3.79h-9.889v4.338h9.43v3.79h-9.43v4.974Z" transform="translate(-232.677 -124.56)" fill="#fff"/>
      <path id="Path_3885" data-name="Path 3885" d="M460.99,213.188v3.79H453.5v16.891h-5.152V216.978h-7.491v-3.79Z" transform="translate(-257.582 -124.56)" fill="#fff"/>
      <path id="Path_3886" data-name="Path 3886" d="M512.226,230.079v3.79H496.978V213.188h15.041v3.79H502.13v4.338h9.43v3.79h-9.43v4.974Z" transform="translate(-290.372 -124.56)" fill="#fff"/>
      <path id="Path_3887" data-name="Path 3887" d="M543.129,213.188h9.237a6.913,6.913,0,0,1,4.886,1.738,5.526,5.526,0,0,1,1.88,4.209q0,3.417-3.553,5.059,1.557.708,2.96,3.816t2.71,5.859H555.6q-.506-1.021-1.764-3.893a12.022,12.022,0,0,0-2.153-3.686,2.811,2.811,0,0,0-1.917-.814h-1.48v8.394h-5.152Zm5.152,3.79v4.708H551a3.2,3.2,0,0,0,2.066-.614,2.124,2.124,0,0,0,.762-1.754q0-2.338-2.946-2.339Z" transform="translate(-317.337 -124.56)" fill="#fff"/>
    </g>
  </g>
</svg>
