<svg id="Logo" xmlns="http://www.w3.org/2000/svg" xmlns:xlink="http://www.w3.org/1999/xlink" width="121.971" height="121.971" viewBox="0 0 121.971 121.971">
  <defs>
    <clipPath id="clip-path">
      <rect id="Rectangle_1066" data-name="Rectangle 1066" width="121.971" height="121.971" fill="none"/>
    </clipPath>
  </defs>
  <path id="Path_4317" data-name="Path 4317" d="M0,0H121.971V121.971H0Z" fill="#141413"/>
  <path id="Path_4276" data-name="Path 4276" d="M31.812,60.71V47.9H26.639V45.059H40.426V47.9H35.253V60.71Z" transform="translate(-8.158 -13.798)" fill="#b1833c"/>
  <path id="Path_4277" data-name="Path 4277" d="M49.584,60.71V45.059h3.441v6.283h7.282V45.059h3.441V60.71H60.307v-6.5H53.025v6.5Z" transform="translate(-15.184 -13.798)" fill="#b1833c"/>
  <path id="Path_4278" data-name="Path 4278" d="M75.183,60.71V45.059H85.906v2.686H78.468v3.663h6.95v2.708h-6.95v3.907h7.438V60.71Z" transform="translate(-23.023 -13.798)" fill="#b1833c"/>
  <g id="Group_343" data-name="Group 343">
    <g id="Group_342" data-name="Group 342" clip-path="url(#clip-path)">
      <path id="Path_4279" data-name="Path 4279" d="M36.262,92.847a9.23,9.23,0,0,1-4.473-1A6.715,6.715,0,0,1,29,89.051a9.84,9.84,0,0,1,.033-8.525,6.848,6.848,0,0,1,2.852-2.819,9.38,9.38,0,0,1,4.485-1,10.272,10.272,0,0,1,3.119.466A7.034,7.034,0,0,1,41.9,78.416L40.791,81.1a6.883,6.883,0,0,0-2.086-1.077,7.974,7.974,0,0,0-2.31-.322,4.549,4.549,0,0,0-3.563,1.32,5.511,5.511,0,0,0-1.188,3.808,5.355,5.355,0,0,0,1.209,3.8,4.691,4.691,0,0,0,3.585,1.287,9.709,9.709,0,0,0,2.665-.4V86.453H35.729V83.967h6.216v7.681a10.812,10.812,0,0,1-2.663.889,14.98,14.98,0,0,1-3.019.31" transform="translate(-8.589 -23.489)" fill="#b1833c"/>
      <path id="Path_4280" data-name="Path 4280" d="M53.1,92.712V77.06h7.149a5.879,5.879,0,0,1,4.04,1.264,4.487,4.487,0,0,1,1.422,3.531,4.637,4.637,0,0,1-.9,2.919,4.507,4.507,0,0,1-2.563,1.587,3.361,3.361,0,0,1,1.931,1.709l2.53,4.641h-3.8l-2.709-5a1.9,1.9,0,0,0-.821-.833,2.67,2.67,0,0,0-1.154-.233H56.544v6.062Zm3.441-8.548H59.63q2.775,0,2.775-2.219,0-2.2-2.775-2.2H56.544Z" transform="translate(-16.261 -23.598)" fill="#b1833c"/>
      <path id="Path_4281" data-name="Path 4281" d="M76.015,92.711V77.059H86.738v2.686H79.3v3.663h6.95v2.709H79.3v3.907h7.438v2.686Z" transform="translate(-23.278 -23.597)" fill="#b1833c"/>
      <path id="Path_4282" data-name="Path 4282" d="M93.04,92.712l7.192-15.652h2.775L110.2,92.712h-3.463l-1.465-3.4h-7.3l-1.443,3.4Zm8.547-11.989-2.464,5.906h5.018l-2.509-5.906Z" transform="translate(-28.491 -23.598)" fill="#b1833c"/>
      <path id="Path_4283" data-name="Path 4283" d="M120.932,92.711V79.9H115.76V77.059h13.787V79.9h-5.173v12.81Z" transform="translate(-35.448 -23.597)" fill="#b1833c"/>
    </g>
  </g>
  <path id="Path_4284" data-name="Path 4284" d="M28.72,124.711V109.059h3.441v6.283h7.282v-6.283h3.441v15.652H39.443v-6.5H32.161v6.5Z" transform="translate(-8.795 -33.397)" fill="#b1833c"/>
  <path id="Path_4285" data-name="Path 4285" d="M51.729,124.711l7.192-15.651H61.7l7.193,15.651H65.426l-1.465-3.4h-7.3l-1.443,3.4Zm8.547-11.988-2.464,5.906h5.018l-2.509-5.906Z" transform="translate(-15.841 -33.397)" fill="#b1833c"/>
  <path id="Path_4286" data-name="Path 4286" d="M79.055,124.711V109.059H82.5V121.8h7.237v2.908Z" transform="translate(-24.209 -33.397)" fill="#b1833c"/>
  <path id="Path_4287" data-name="Path 4287" d="M98.031,124.711V109.059h3.441V121.8h7.238v2.908Z" transform="translate(-30.019 -33.397)" fill="#b1833c"/>
</svg>
