<svg id="Group_344" data-name="Group 344" xmlns="http://www.w3.org/2000/svg" xmlns:xlink="http://www.w3.org/1999/xlink" width="199.185" height="199.185" viewBox="0 0 199.185 199.185">
  <defs>
    <clipPath id="clip-path">
      <rect id="Rectangle_1066" data-name="Rectangle 1066" width="199.185" height="199.185" fill="none"/>
    </clipPath>
  </defs>
  <rect id="Rectangle_1065" data-name="Rectangle 1065" width="199.185" height="199.185" fill="#0c0c0c"/>
  <path id="Path_4276" data-name="Path 4276" d="M35.087,70.619V49.7H26.64V45.059H49.154V49.7H40.706V70.619Z" transform="translate(3.542 5.991)" fill="#b1833c"/>
  <path id="Path_4277" data-name="Path 4277" d="M49.584,70.619V45.059H55.2v10.26H67.095V45.059h5.62v25.56h-5.62V60H55.2V70.619Z" transform="translate(6.593 5.991)" fill="#b1833c"/>
  <path id="Path_4278" data-name="Path 4278" d="M75.183,70.619V45.059H92.695v4.387H80.548v5.982H91.9v4.423H80.548v6.381H92.695v4.387Z" transform="translate(9.997 5.991)" fill="#b1833c"/>
  <g id="Group_343" data-name="Group 343">
    <g id="Group_342" data-name="Group 342" clip-path="url(#clip-path)">
      <path id="Path_4279" data-name="Path 4279" d="M41.462,103.064a15.074,15.074,0,0,1-7.305-1.63,10.967,10.967,0,0,1-4.55-4.569,16.069,16.069,0,0,1,.054-13.922,11.183,11.183,0,0,1,4.658-4.6,15.317,15.317,0,0,1,7.325-1.631,16.774,16.774,0,0,1,5.093.761A11.487,11.487,0,0,1,50.67,79.5l-1.812,4.387a11.24,11.24,0,0,0-3.407-1.758,13.022,13.022,0,0,0-3.773-.526q-3.88,0-5.818,2.156a9,9,0,0,0-1.94,6.219q0,4.1,1.975,6.2a7.661,7.661,0,0,0,5.855,2.1,15.856,15.856,0,0,0,4.353-.653v-5H40.591V88.562H50.742v12.544a17.657,17.657,0,0,1-4.349,1.451,24.462,24.462,0,0,1-4.931.506" transform="translate(3.729 10.199)" fill="#b1833c"/>
      <path id="Path_4280" data-name="Path 4280" d="M53.1,102.62V77.06H64.778a9.6,9.6,0,0,1,6.6,2.064A7.327,7.327,0,0,1,73.7,84.89a7.573,7.573,0,0,1-1.469,4.768,7.359,7.359,0,0,1-4.186,2.592A5.489,5.489,0,0,1,71.2,95.041l4.132,7.578h-6.2L64.7,94.462a3.108,3.108,0,0,0-1.34-1.361,4.359,4.359,0,0,0-1.885-.381H58.723v9.9Zm5.62-13.959h5.039q4.532,0,4.532-3.624,0-3.591-4.532-3.59H58.723Z" transform="translate(7.061 10.246)" fill="#b1833c"/>
      <path id="Path_4281" data-name="Path 4281" d="M76.015,102.619V77.059H93.527v4.386H81.38v5.982H92.729v4.424H81.38v6.381H93.527v4.387Z" transform="translate(10.107 10.246)" fill="#b1833c"/>
      <path id="Path_4282" data-name="Path 4282" d="M93.04,102.62l11.745-25.56h4.532l11.747,25.56h-5.656l-2.393-5.548H101.087l-2.357,5.548ZM107,83.041l-4.024,9.645h8.195l-4.1-9.645Z" transform="translate(12.371 10.246)" fill="#b1833c"/>
      <path id="Path_4283" data-name="Path 4283" d="M124.207,102.619V81.7H115.76V77.059h22.514V81.7h-8.447v20.919Z" transform="translate(15.392 10.246)" fill="#b1833c"/>
    </g>
  </g>
  <path id="Path_4284" data-name="Path 4284" d="M28.719,134.619v-25.56h5.62v10.26H46.231v-10.26h5.62v25.56h-5.62V124H34.339v10.623Z" transform="translate(3.819 14.501)" fill="#b1833c"/>
  <path id="Path_4285" data-name="Path 4285" d="M51.729,134.619,63.474,109.06h4.532l11.747,25.559H74.1L71.7,129.072H59.776l-2.357,5.547Zm13.957-19.578-4.024,9.645h8.195l-4.1-9.645Z" transform="translate(6.878 14.501)" fill="#b1833c"/>
  <path id="Path_4286" data-name="Path 4286" d="M79.055,134.619v-25.56h5.62v20.81H96.494v4.749Z" transform="translate(10.512 14.501)" fill="#b1833c"/>
  <path id="Path_4287" data-name="Path 4287" d="M98.031,134.619v-25.56h5.62v20.81h11.82v4.749Z" transform="translate(13.035 14.501)" fill="#b1833c"/>
</svg>
